<svg width="497" height="139" viewBox="0 0 497 139" fill="none" xmlns="http://www.w3.org/2000/svg">
    <path d="M159.341 67.3301V110.59C159.241 118.09 156.461 124.59 151.071 129.96C145.611 135.44 138.931 138.22 131.211 138.22C123.461 138.22 116.771 135.44 111.301 129.95C110.141 128.81 109.091 127.6 108.211 126.38L106.881 124.54L113.541 119.26L115.001 121.3C115.641 122.21 116.421 123.14 117.321 124.08C121.161 127.88 125.711 129.74 131.211 129.74C136.701 129.74 141.251 127.88 145.131 124.04C147.811 121.35 149.541 118.39 150.351 115.09C148.971 116.32 147.461 117.41 145.821 118.35C141.781 120.65 137.371 121.81 132.711 121.81C125.391 121.81 119.051 119.19 113.851 114.02C108.681 108.82 106.051 102.49 106.051 95.1901V76.0801H114.501V95.1901C114.501 100.25 116.241 104.45 119.831 108.04C123.421 111.65 127.631 113.4 132.711 113.4C137.751 113.4 141.941 111.66 145.531 108.07C149.141 104.48 150.891 100.28 150.891 95.2201V67.3301H159.341Z"
          fill="#323232"/>
    <path d="M197.171 64.6406C189.061 64.6406 182.041 67.5606 176.281 73.3206C170.551 79.0506 167.641 86.0706 167.641 94.1806C167.641 102.291 170.551 109.301 176.281 115.041C182.041 120.801 189.071 123.721 197.171 123.721C205.281 123.721 212.301 120.801 218.021 115.051C223.781 109.311 226.701 102.301 226.701 94.1906C226.701 86.0806 223.781 79.0606 218.031 73.3406C212.291 67.5606 205.271 64.6406 197.171 64.6406ZM197.171 114.841C191.411 114.841 186.631 112.861 182.551 108.791C178.481 104.721 176.501 99.9406 176.501 94.1706C176.501 88.4006 178.481 83.6306 182.551 79.5506C186.621 75.4806 191.401 73.5006 197.171 73.5006C202.941 73.5006 207.711 75.4806 211.791 79.5506C215.861 83.6206 217.841 88.4006 217.841 94.1706C217.841 99.9406 215.861 104.711 211.791 108.791C207.711 112.861 202.931 114.841 197.171 114.841Z"
          fill="#323232"/>
    <path d="M260.37 64.4297C253.32 64.4297 247.2 66.9597 242.18 71.9497C237.2 76.9597 234.67 83.0797 234.67 90.1297V121.81H243.54V90.1297C243.54 85.4297 245.15 81.5397 248.47 78.2197C251.79 74.8997 255.68 73.2897 260.38 73.2897C265.05 73.2897 268.94 74.8997 272.26 78.2197C275.6 81.5397 277.22 85.4297 277.22 90.1197V121.8H286.05V90.1197C286.05 83.0697 283.52 76.9497 278.53 71.9297C273.51 66.9497 267.4 64.4297 260.37 64.4297Z"
          fill="#323232"/>
    <path d="M304.49 57.5H295.59V101.27C295.59 107.39 297.81 112.71 302.19 117.06C306.52 121.39 311.83 123.59 317.95 123.59C322.38 123.59 326.43 122.42 329.96 120.13L331.1 119.39V107.51L326.92 111.3C324.37 113.61 321.44 114.73 317.95 114.73C314.2 114.73 311.09 113.44 308.43 110.79C305.77 108.14 304.49 105.02 304.49 101.27V75.4H331.1V66.53H304.49V57.5Z"
          fill="#323232"/>
    <path d="M366.29 64.5996C359.26 64.5996 353.16 67.1296 348.17 72.1196C343.18 77.1096 340.65 83.1996 340.65 90.2396V121.74H349.52V90.2396C349.52 85.5696 351.13 81.6796 354.45 78.3596C357.74 75.0496 361.61 73.4396 366.28 73.4396C368.02 73.4396 369.76 73.7196 371.45 74.2696L374.72 75.3396V65.9696L372.86 65.4796C370.72 64.8896 368.51 64.5996 366.29 64.5996Z"
          fill="#323232"/>
    <path d="M408.01 64.6406C399.9 64.6406 392.88 67.5606 387.12 73.3206C381.39 79.0506 378.48 86.0706 378.48 94.1806C378.48 102.291 381.39 109.301 387.12 115.041C392.88 120.801 399.91 123.721 408.01 123.721C416.12 123.721 423.14 120.801 428.86 115.051C434.62 109.311 437.54 102.301 437.54 94.1906C437.54 86.0806 434.62 79.0606 428.87 73.3406C423.14 67.5606 416.12 64.6406 408.01 64.6406ZM408.01 114.841C402.25 114.841 397.471 112.861 393.391 108.791C389.311 104.721 387.34 99.9406 387.34 94.1706C387.34 88.4006 389.321 83.6306 393.391 79.5506C397.461 75.4706 402.24 73.5006 408.01 73.5006C413.78 73.5006 418.55 75.4806 422.63 79.5506C426.71 83.6206 428.68 88.4006 428.68 94.1706C428.68 99.9406 426.7 104.711 422.63 108.791C418.56 112.871 413.771 114.841 408.01 114.841Z"
          fill="#323232"/>
    <path d="M489.36 71.9397C484.35 66.9497 478.24 64.4297 471.21 64.4297C464.16 64.4297 458.04 66.9597 453.02 71.9497C448.03 76.9597 445.51 83.0797 445.51 90.1297V121.81H454.38V90.1297C454.38 85.4297 455.99 81.5397 459.31 78.2197C462.63 74.8997 466.52 73.2897 471.22 73.2897C475.89 73.2897 479.78 74.8997 483.1 78.2197C486.44 81.5397 488.06 85.4297 488.06 90.1197V121.8H496.89V90.1197C496.88 83.0797 494.36 76.9597 489.36 71.9397Z"
          fill="#323232"/>
    <path d="M24.49 48.53C27.16 45.97 29.75 43.33 32.38 40.73C37.66 35.54 42.79 30.22 47.93 24.9L55.57 16.86L60.16 11.94C64.21 16.28 68.27 20.61 72.39 24.89C77.52 30.22 82.67 35.52 87.94 40.72C93.15 45.97 98.49 51.1 103.85 56.22C109.27 61.28 114.68 66.35 120.35 71.17C115.99 65.13 111.37 59.34 106.76 53.53C102.09 47.78 97.39 42.06 92.58 36.44C87.82 30.77 82.94 25.22 78.04 19.68C73.13 14.15 68.16 8.68001 63.15 3.24001L60.17 0L57.2 3.24001L49.71 11.42L42.3 19.67C37.4 25.21 32.51 30.75 27.76 36.42C25.38 39.25 22.95 42.04 20.61 44.91L13.58 53.51C8.97999 59.32 4.35 65.11 0 71.15C5.68 66.33 11.08 61.26 16.51 56.21L24.49 48.53Z"
          fill="#323232"/>
    <path d="M60.0901 45.3295C50.4001 45.1295 40.7601 47.6295 32.2501 51.8495C23.7001 56.0495 16.1501 61.8995 9.83008 68.7295C17.6901 63.7295 25.6501 59.1895 34.0401 55.9795C42.4301 52.8295 51.2001 50.9195 60.0201 51.1195C68.8301 51.2395 77.5801 53.1995 85.9901 56.3795C94.4101 59.5895 102.45 63.9895 110.47 68.7295C103.94 62.0995 96.3301 56.4095 87.7901 52.2295C79.3101 48.0195 69.7801 45.4595 60.0901 45.3295Z"
          fill="#323232"/>
    <path d="M57.8695 27.6895H53.2695V32.2395H57.8695V27.6895Z" fill="#323232"/>
    <path d="M65.3188 27.6895H60.7188V32.2395H65.3188V27.6895Z" fill="#323232"/>
    <path d="M57.8695 35.0996H53.2695V39.6396H57.8695V35.0996Z" fill="#323232"/>
    <path d="M65.3188 35.0996H60.7188V39.6396H65.3188V35.0996Z" fill="#323232"/>
    <path d="M101.92 131.46C101.99 131.55 102.06 131.65 102.13 131.74H12.1699V130.24H101.04L101.92 131.46Z"
          fill="#323232"/>
    <path d="M496.881 130.24V131.74H158.061C158.441 131.25 158.791 130.75 159.121 130.24H496.881Z" fill="#323232"/>
    <path d="M50.9695 64.2109C43.9195 64.2109 37.7995 66.7409 32.7795 71.7309C27.7995 76.7409 25.2695 82.8609 25.2695 89.9109V121.591H34.1395V89.9109C34.1395 85.2109 35.7495 81.3209 39.0695 78.0009C42.3895 74.6809 46.2795 73.0709 50.9795 73.0709C55.6495 73.0709 59.5395 74.6809 62.8595 78.0009C66.1995 81.3209 67.8195 85.2109 67.8195 89.9009V121.581H76.6495V89.9009C76.6495 82.8509 74.1195 76.7309 69.1295 71.7109C64.0995 66.7409 57.9895 64.2109 50.9695 64.2109Z"
          fill="#323232"/>
    <path d="M95.0497 66.3203H86.1797V121.52H95.0497V66.3203Z" fill="#323232"/>
    <path d="M60.7289 80.1401C58.2089 77.6101 55.3989 76.3201 51.9689 76.1201C51.6489 76.0901 51.3089 76.0801 50.9689 76.0801C50.6289 76.0801 50.2989 76.0901 49.9689 76.1201C46.5189 76.3201 43.7089 77.6101 41.1789 80.1301C38.4189 82.9001 37.1289 86.0101 37.1289 89.9201V121.6H39.1289V110.04H49.9689V121.6H51.9689V110.04H62.7989V121.6H64.7989V89.9201C64.7989 86.0101 63.5089 82.9001 60.7289 80.1401ZM49.9689 108.04H39.1289V93.9101H49.9689V108.04ZM49.9689 91.9101H39.1289V89.9201C39.1289 86.5301 40.1989 83.9501 42.5989 81.5401C44.7589 79.3901 47.0589 78.3101 49.9689 78.1101V91.9101ZM51.9689 78.1101C54.8689 78.3101 57.1589 79.3901 59.3089 81.5501C61.7289 83.9501 62.7989 86.5301 62.7989 89.9201V91.9101H51.9689V78.1101ZM51.9689 108.04V93.9101H62.7989V108.04H51.9689Z"
          fill="#323232"/>
</svg>
